<svg xmlns="http://www.w3.org/2000/svg" version="1.1" xmlns:xlink="http://www.w3.org/1999/xlink" width="1500" height="132" viewBox="0 0 1500 132"><svg xml:space="preserve" width="1500" height="132" data-version="2" data-id="lg_SxVe4IgjE4lKpDg9ue" viewBox="0 0 565 132" x="0" y="0"><rect width="100%" height="100%" fill="transparent"></rect><path fill="#fff" d="M161.17 92.96V49.43h-14.42v-4.77h34.64v4.77h-14.42v43.53Z"></path><rect width="34.64" height="48.3" x="-17.32" y="-24.15" fill="none" rx="0" ry="0" transform="translate(164.57 69.31)"></rect><path fill="#fff" d="M219.41 92.96v-48.3h5.79v48.3Zm-30.84 0v-48.3h5.79v48.3Zm4.69-22.21v-4.76h27.6v4.76Z"></path><rect width="36.63" height="48.3" x="-18.32" y="-24.15" fill="none" rx="0" ry="0" transform="translate(207.38 69.31)"></rect><path fill="#fff" d="M235.55 92.96v-48.3h29.88v4.77h-24.08v16.83h22.01v4.69h-22.01V88.2h24.08v4.76Z"></path><rect width="29.88" height="48.3" x="-14.94" y="-24.15" fill="none" rx="0" ry="0" transform="translate(250.99 69.31)"></rect><path fill="#fff" d="M285.86 92.96V49.43h-14.43v-4.77h34.64v4.77h-14.42v43.53Z"></path><rect width="34.64" height="48.3" x="-17.32" y="-24.15" fill="none" rx="0" ry="0" transform="translate(289.25 69.31)"></rect><path fill="#fff" d="m304.69 92.96 17.8-48.3h6.15l17.73 48.3h-6.14l-14.7-41.05-14.77 41.05Zm8.14-12.42 1.66-4.69h21.87l1.66 4.69Z"></path><rect width="41.68" height="48.3" x="-20.84" y="-24.15" fill="none" rx="0" ry="0" transform="translate(326.03 69.31)"></rect><path fill="#fff" d="M353.61 92.96v-48.3h15.8q5.66 0 9.35 1.9 3.7 1.9 5.46 5.07 1.75 3.18 1.75 7.25 0 3.93-1.75 7.14-1.76 3.21-5.42 5.11-3.66 1.89-9.39 1.89h-10v19.94Zm5.8-24.84h9.87q5.79 0 8.28-2.51 2.48-2.52 2.48-6.73 0-4.49-2.48-6.94-2.49-2.45-8.28-2.45h-9.87Z"></path><rect width="32.36" height="48.3" x="-16.18" y="-24.15" fill="none" rx="0" ry="0" transform="translate(370.29 69.31)"></rect><path fill="#fff" d="M414.61 93.79q-7.04 0-12.18-3.14t-7.9-8.76q-2.76-5.62-2.76-13.08 0-7.45 2.76-13.07t7.9-8.76q5.14-3.14 12.18-3.14 8.28 0 13.45 3.93 5.18 3.93 6.63 11.11h-6.42q-1.1-4.49-4.48-7.21-3.38-2.73-9.18-2.73-5.11 0-8.94 2.38-3.83 2.38-5.9 6.83-2.07 4.45-2.07 10.66t2.07 10.66q2.07 4.46 5.9 6.84 3.83 2.38 8.94 2.38 5.8 0 9.18-2.66t4.48-7.07h6.42q-1.45 6.97-6.63 10.9-5.17 3.93-13.45 3.93"></path><rect width="42.92" height="49.95" x="-21.46" y="-24.98" fill="none" rx="0" ry="0" transform="translate(413.73 69.31)"></rect><path fill="#fff" d="m438.83 92.96 17.8-48.3h6.14l17.73 48.3h-6.14l-14.69-41.05-14.77 41.05Zm8.14-12.42 1.66-4.69h21.87l1.66 4.69Z"></path><rect width="41.67" height="48.3" x="-20.84" y="-24.15" fill="none" rx="0" ry="0" transform="translate(460.17 69.31)"></rect><path fill="#fff" d="M487.75 92.96v-48.3h15.59q5.66 0 9.25 1.9t5.31 5.07q1.73 3.18 1.73 7.18 0 3.86-1.76 7.11-1.76 3.24-5.42 5.17-3.66 1.93-9.38 1.93h-9.52v19.94Zm25.53 0-10.63-21.59h6.49l10.97 21.59Zm-19.73-24.49h9.38q5.52 0 8.11-2.69 2.58-2.69 2.58-6.9 0-4.28-2.51-6.8-2.52-2.52-8.25-2.52h-9.31Z"></path><rect width="32.36" height="48.3" x="-16.18" y="-24.15" fill="none" rx="0" ry="0" transform="translate(504.43 69.31)"></rect><path fill="#fff" d="M528.74 92.96v-48.3h29.87v4.77h-24.08v16.83h22.01v4.69h-22.01V88.2h24.08v4.76Z"></path><rect width="29.87" height="48.3" x="-14.94" y="-24.15" fill="none" rx="0" ry="0" transform="translate(544.17 69.31)"></rect><path fill="#fff" d="M75.332 128.977H45.37c-12.592 0-21.524-19.433-29.395-36.576-2.986-6.487-5.797-12.608-8.136-15.912-3.437-4.837-3.236-10.815.488-14.544 3.94-3.935 10.937-4.078 14.76-.249l7.495 7.696V25.905c0-5.607 4.859-10.338 10.608-10.338 5.85 0 10.608 4.588 10.608 10.237V48.77a10.872 10.872 0 0 1 5.304-1.373c4.562 0 8.572 2.986 10.025 7.027a10.843 10.843 0 0 1 5.887-1.723c4.562 0 8.572 2.986 10.025 7.027a10.843 10.843 0 0 1 5.887-1.723c5.75 0 10.608 4.752 10.608 10.342v28.695c0 22.218-22.266 31.378-23.215 31.75a2.736 2.736 0 0 1-.987.185M15.943 64.088a5.453 5.453 0 0 0-3.866 1.613c-2.17 2.164-1.475 5.532.085 7.733 2.63 3.707 5.415 9.76 8.63 16.76 6.497 14.141 15.386 33.485 24.578 33.485h29.426c3.024-1.337 19.44-9.388 19.44-26.632V68.353c0-2.732-2.43-5.04-5.304-5.04s-5.304 2.26-5.304 4.923a2.652 2.652 0 0 1-5.304 0v-5.187c0-2.737-2.43-5.034-5.304-5.034s-5.304 2.26-5.304 4.933a2.66 2.66 0 0 1-2.652 2.652 2.656 2.656 0 0 1-2.652-2.652v-5.193c0-2.731-2.43-5.033-5.304-5.033s-5.304 2.26-5.304 4.927a2.652 2.652 0 0 1-5.304 0V25.825c0-2.662-2.43-4.927-5.304-4.927s-5.304 2.318-5.304 5.033v50.017a2.633 2.633 0 0 1-1.66 2.456 2.66 2.66 0 0 1-2.902-.6L19.306 65.446c-.849-.88-2.058-1.358-3.363-1.358"></path><path fill="#fff" d="M32.258 51.141c-.328 0-.657-.063-.976-.185a25.962 25.962 0 0 1-8.65-5.639c-4.912-4.837-7.628-11.26-7.628-18.086s2.71-13.25 7.628-18.087c10.114-9.924 26.567-9.934 36.677 0 4.917 4.837 7.622 11.26 7.622 18.087s-2.705 13.25-7.622 18.086a25.9 25.9 0 0 1-8.423 5.532 2.665 2.665 0 0 1-3.458-1.442 2.644 2.644 0 0 1 1.453-3.453 20.778 20.778 0 0 0 6.71-4.413c3.887-3.824 6.03-8.9 6.03-14.294s-2.143-10.492-6.036-14.3c-8.067-7.913-21.184-7.913-29.24 0-3.888 3.835-6.037 8.91-6.037 14.294 0 5.416 2.143 10.497 6.042 14.295a20.66 20.66 0 0 0 6.89 4.497c1.363.552 2.026 2.096 1.49 3.427a2.645 2.645 0 0 1-2.472 1.681"></path></svg></svg>